<svg width="115" height="46" viewBox="0 0 115 46" fill="none" xmlns="http://www.w3.org/2000/svg">
<path d="M42.6719 32.3552V18.0121H45.9392L46.2573 19.9495C46.7232 19.2529 47.3537 18.6819 48.093 18.2872C48.9086 17.8598 49.8192 17.6459 50.7398 17.6653C52.9562 17.6653 54.5273 18.5251 55.453 20.2447C55.9789 19.4488 56.7009 18.8018 57.5495 18.366C58.4362 17.9006 59.4242 17.6618 60.4256 17.671C62.2961 17.671 63.7325 18.2304 64.7347 19.3491C65.7368 20.4678 66.2379 22.1062 66.2379 24.2643V32.3609H62.5364V24.6054C62.5364 23.372 62.3004 22.4277 61.8285 21.7723C61.3566 21.1169 60.6291 20.7888 59.646 20.7878C58.6429 20.7878 57.838 21.1542 57.2314 21.887C56.6247 22.6197 56.3204 23.6415 56.3185 24.9522V32.3552H52.6185V24.6054C52.6185 23.372 52.3796 22.4277 51.902 21.7723C51.4243 21.1169 50.682 20.7888 49.6751 20.7878C49.2197 20.7746 48.7675 20.867 48.3539 21.0577C47.9402 21.2484 47.5762 21.5322 47.2905 21.887C46.6848 22.6207 46.3815 23.6424 46.3805 24.9522V32.3552H42.6719Z" fill="white"/>
<path d="M75.0747 32.7003C73.7641 32.7204 72.4718 32.3915 71.3302 31.7473C70.2305 31.1185 69.3214 30.2039 68.6992 29.1005C68.0534 27.9732 67.7305 26.6672 67.7305 25.1826C67.7305 23.698 68.0582 22.3921 68.7135 21.2647C69.3443 20.1619 70.2593 19.2484 71.3632 18.6194C72.5068 17.9932 73.7896 17.665 75.0933 17.665C76.3971 17.665 77.6799 17.9932 78.8235 18.6194C79.9233 19.2474 80.8324 20.1616 81.4545 21.2647C82.0994 22.3921 82.4223 23.698 82.4232 25.1826C82.4242 26.6672 82.1013 27.9732 81.4545 29.1005C80.8298 30.2074 79.9146 31.1226 78.8077 31.7473C77.6692 32.3887 76.3813 32.7174 75.0747 32.7003ZM75.0747 29.4917C75.5462 29.4939 76.0131 29.3986 76.4461 29.212C76.8791 29.0253 77.2689 28.7512 77.5911 28.4069C78.3047 27.6847 78.6615 26.6099 78.6615 25.1826C78.6615 23.7553 78.3047 22.6806 77.5911 21.9583C76.8774 21.2361 76.0487 20.875 75.1048 20.875C74.6308 20.8697 74.161 20.9633 73.7252 21.1499C73.2895 21.3364 72.8974 21.6117 72.5741 21.9583C71.87 22.6815 71.5184 23.7563 71.5194 25.1826C71.5203 26.609 71.8719 27.6837 72.5741 28.4069C72.8927 28.7515 73.2795 29.026 73.7101 29.2128C74.1406 29.3996 74.6054 29.4946 75.0747 29.4917Z" fill="white"/>
<path d="M83.9141 32.355V18.0118H87.1828L87.4694 20.4408C87.908 19.5993 88.5744 18.8981 89.3925 18.4174C90.2303 17.9158 91.2182 17.665 92.356 17.665C94.1301 17.665 95.5086 18.2244 96.4917 19.3431C97.4747 20.4618 97.9663 22.1002 97.9663 24.2584V32.355H94.2662V24.6052C94.2662 23.3718 94.0159 22.4274 93.5153 21.7721C93.0147 21.1167 92.2337 20.7886 91.1723 20.7876C90.6914 20.7734 90.2132 20.8643 89.7711 21.0542C89.329 21.244 88.9338 21.5282 88.6129 21.8867C87.9442 22.6204 87.6098 23.6422 87.6098 24.952V32.355H83.9141Z" fill="white"/>
<path d="M101.669 15.7858C101.057 15.8083 100.46 15.5902 100.007 15.1782C99.7949 14.9841 99.6272 14.7467 99.5149 14.4822C99.4027 14.2177 99.3486 13.9321 99.3563 13.6448C99.3481 13.3598 99.4021 13.0764 99.5144 12.8144C99.6268 12.5523 99.7948 12.3178 100.007 12.1273C100.476 11.7437 101.064 11.5342 101.67 11.5342C102.276 11.5342 102.864 11.7437 103.333 12.1273C103.545 12.3178 103.713 12.5523 103.825 12.8144C103.938 13.0764 103.992 13.3598 103.983 13.6448C103.991 13.9321 103.937 14.2177 103.825 14.4822C103.713 14.7467 103.545 14.9841 103.333 15.1782C102.879 15.5903 102.282 15.8084 101.669 15.7858ZM99.8191 32.3544V18.0112H103.521V32.3544H99.8191Z" fill="white"/>
<path d="M13.3288 25.3649L13.2872 25.3305C12.3284 24.5458 11.0991 24.1701 9.86545 24.2849C8.63177 24.3997 7.4929 24.9957 6.69531 25.9438L10.2592 28.9274L10.3008 28.9618C11.2596 29.7465 12.4889 30.1221 13.7226 30.0073C14.9562 29.8925 16.0951 29.2966 16.8927 28.3484L13.3288 25.3649Z" fill="#E15341"/>
<path d="M14.8657 20.1396L14.8556 20.0865C14.625 18.8697 13.924 17.7928 12.9046 17.0894C11.8852 16.3861 10.6296 16.1129 9.41016 16.3292L10.2184 20.9019L10.227 20.9549C10.458 22.1716 11.1591 23.2482 12.1784 23.9516C13.1976 24.6549 14.453 24.9282 15.6725 24.7123L14.8657 20.1396Z" fill="#E15341"/>
<path d="M19.4022 17.1291L19.4294 17.0832C20.0365 16.0056 20.1934 14.7319 19.866 13.5392C19.5386 12.3465 18.7533 11.3314 17.6811 10.7148L15.3539 14.7359L15.3266 14.7818C14.7195 15.8593 14.5626 17.1331 14.89 18.3258C15.2174 19.5185 16.0027 20.5336 17.0749 21.1501L19.4022 17.1291Z" fill="#E15341"/>
<path d="M24.8165 17.7335L24.8681 17.7149C26.0267 17.281 26.9671 16.4073 27.4847 15.2836C28.0024 14.16 28.0555 12.8774 27.6324 11.7148L23.2574 13.3012L23.2144 13.327C22.0558 13.7608 21.1155 14.6347 20.5981 15.7584C20.0806 16.8821 20.028 18.1647 20.4515 19.3271L24.8165 17.7335Z" fill="#E15341"/>
<path d="M28.5767 21.6702L28.6269 21.6888C29.795 22.0993 31.0778 22.0333 32.1975 21.5049C33.3173 20.9765 34.1839 20.0284 34.6097 18.8658L30.2361 17.2751L30.186 17.2579C29.0179 16.847 27.7349 16.9129 26.6151 17.4414C25.4952 17.9698 24.6286 18.9181 24.2031 20.081L28.5767 21.6702Z" fill="#E15341"/>
<path d="M28.921 27.0982L28.9482 27.144C29.5818 28.2083 30.6088 28.9806 31.8072 29.2938C33.0056 29.607 34.2791 29.436 35.3524 28.8178L33.0252 24.791L32.9979 24.7451C32.3649 23.6803 31.3379 22.9076 30.1393 22.5943C28.9407 22.281 27.6669 22.4524 26.5938 23.0714L28.921 27.0982Z" fill="#E15341"/>
<path d="M25.6893 31.4761L25.6792 31.5291C25.4788 32.7501 25.7682 34.0009 26.4846 35.0098C27.201 36.0187 28.2866 36.7041 29.5054 36.9173L30.3136 32.3445L30.3237 32.2915C30.5241 31.0705 30.2347 29.8197 29.5183 28.8108C28.8019 27.8019 27.7164 27.1165 26.4975 26.9033L25.6893 31.4761Z" fill="#E15341"/>
<path d="M20.3898 32.756L20.3482 32.7904C19.4082 33.5944 18.8239 34.7373 18.7228 35.9701C18.6216 37.2029 19.0116 38.4257 19.808 39.3723L23.3733 36.3873L23.4134 36.3529C24.353 35.5489 24.937 34.4064 25.0382 33.1739C25.1393 31.9414 24.7496 30.7189 23.9537 29.7725L20.3898 32.756Z" fill="#E15341"/>
<path d="M15.5083 30.3398H15.4552C14.2177 30.3523 13.035 30.8522 12.1636 31.731C11.2923 32.6099 10.8026 33.7968 10.8008 35.0344H15.5083C16.7458 35.022 17.9285 34.5221 18.7998 33.6433C19.6712 32.7644 20.1609 31.5774 20.1627 30.3398H15.5083Z" fill="#E15341"/>
</svg>
